<?xml version="1.0" encoding="utf-8"?>
<!-- Generator: Adobe Illustrator 27.2.0, SVG Export Plug-In . SVG Version: 6.00 Build 0)  -->
<svg version="1.1" id="Capa_3" xmlns="http://www.w3.org/2000/svg" xmlns:xlink="http://www.w3.org/1999/xlink" x="0px" y="0px"
	 viewBox="0 0 1920 1080" style="enable-background:new 0 0 1920 1080;" xml:space="preserve">
<style type="text/css">
	.st0{fill:#FC96BB;}
	.st1{fill:#FCADBB;}
	.st2{fill:#FC94BB;}
</style>
<path class="st0" d="M1920,288.83"/>
<path class="st1" d="M1920,300.52C1928,298,1580,510,1580,510c-139-144-264,10-264,10s-243,270-558,201s-508,39-520,74
	c-10.84,31.62,146.44,64.87,176.93,71c3.26,0.66,5.07,1,5.07,1l1500-19.73V300.52z"/>
<path class="st2" d="M419,908c0,0,207-119,667-115s702.75-253,702.75-253s6.25-58,75.25-81s56.14-13.03,56.14-13.03l0.95,462.03H419
	z"/>
<polyline class="st2" points="419,908 208,1008 1920,1008 1921.08,908 "/>
</svg>
